<?xml version="1.0" encoding="UTF-8"?>
<svg id="Ebene_1" xmlns="http://www.w3.org/2000/svg" version="1.1" viewBox="0 0 256 256">
  <!-- Generator: Adobe Illustrator 30.2.1, SVG Export Plug-In . SVG Version: 2.1.1 Build 1)  -->
  <defs>
    <style>
      .st0 {
        fill: lime;
      }

      .st1 {
        fill: #111336;
      }
    </style>
  </defs>
  <g>
    <path class="st1" d="M191.5,38c-24,0-43.5,19.6-43.5,43.7s19.5,43.7,43.5,43.7,43.5-19.6,43.5-43.7-19.5-43.7-43.5-43.7ZM191.5,115c-18.2,0-33.1-14.9-33.1-33.3s14.8-33.3,33.1-33.3,33.1,14.9,33.1,33.3-14.8,33.3-33.1,33.3Z"/>
    <path class="st1" d="M209.6,77.5h-12.6v-12.6c0-2.9-2.3-5.2-5.2-5.2s-5.2,2.3-5.2,5.2v12.6h-12.6c-2.9,0-5.2,2.3-5.2,5.2s2.3,5.2,5.2,5.2h12.6v12.6c0,2.9,2.3,5.2,5.2,5.2s5.2-2.3,5.2-5.2v-12.6h12.6c2.9,0,5.2-2.3,5.2-5.2s-2.3-5.2-5.2-5.2Z"/>
  </g>
  <g>
    <path class="st0" d="M74.3,137.5c-1.8,0-3.5,1-4.5,2.5l-20.7,34.6c-1,1.6-1,3.6,0,5.2.9,1.6,2.6,2.6,4.5,2.6h41.3c1.9,0,3.6-1,4.5-2.6.9-1.6.9-3.6,0-5.2l-20.7-34.6c-.9-1.6-2.6-2.5-4.5-2.5ZM62.8,172.1l11.5-19.3,11.5,19.3h-23Z"/>
    <path class="st0" d="M112.3,109.2c-7-5.2-15.6-4.5-21.2-.3-5.6,4.4-8.5,13.3-1.4,22.7,7,9.2,18.7,19.4,19.1,19.9,1,.9,2.2,1.3,3.4,1.3s2.4-.4,3.4-1.3c.5-.4,12.2-10.6,19.1-19.9,7.1-9.4,4.2-18.3-1.4-22.7-5.5-4.3-14.2-4.9-21.2.3ZM126.6,125.3c-4.2,5.5-10.4,11.6-14.3,15.2-3.9-3.6-10.1-9.7-14.3-15.2-1.2-1.6-3.8-5.7-.5-8.2.9-.7,2.3-1.2,3.9-1.2s4.7,1,6.9,3.7c1,1.2,2.5,2,4.1,2s3.1-.7,4.1-2c3.6-4.6,8.5-4.2,10.7-2.5,3.2,2.5.7,6.6-.5,8.2Z"/>
    <path class="st0" d="M191,140.1c-2.9,0-5.2,2.3-5.2,5.2v43c0,3.3-2.7,6-6,6H43.9c-3.3,0-6-2.7-6-6v-89c0-3.3,2.7-6,6-6h81.7c2.9,0,5.2-2.3,5.2-5.2s-2.3-5.2-5.2-5.2H43.9c-9,0-16.4,7.3-16.4,16.3v89c0,9,7.3,16.4,16.4,16.4h135.9c9,0,16.4-7.3,16.4-16.4v-43c0-2.9-2.3-5.2-5.2-5.2Z"/>
    <path class="st0" d="M136.5,146.5c0,2.9,2.3,5.2,5.2,5.2h13.5l-21.9,21.9c-2,2-2,5.3,0,7.3,1,1,2.3,1.5,3.7,1.5s2.7-.5,3.7-1.5l22-22v13.5c0,2.9,2.3,5.2,5.2,5.2s5.2-2.3,5.2-5.2v-25.6c0-.1,0-.2,0-.3,0-.1,0-.2,0-.3,0-.2,0-.4,0-.7,0-.2,0-.3-.1-.5,0-.2,0-.3-.2-.5,0-.2-.2-.4-.3-.6,0-.1-.1-.2-.2-.4-.1-.2-.3-.4-.5-.6,0,0-.1-.2-.2-.2,0,0,0,0,0,0,0,0,0,0,0,0-.3-.3-.6-.5-.9-.7,0,0-.1,0-.2-.1-.3-.2-.5-.3-.8-.4-.1,0-.2,0-.3,0-.3,0-.5-.1-.8-.2-.1,0-.2,0-.4,0-.2,0-.5,0-.7,0,0,0-.2,0-.2,0h-25.4c-2.9,0-5.2,2.3-5.2,5.2Z"/>
  </g>
</svg>